<svg 
          width="21" 
          height="21.340999603271484" fill="none" 
          xmlns="http://www.w3.org/2000/svg">
          <path d="M 16.025999069213867 4.457000255584717 L 12.847000122070312 0 L 1.1579999923706055 9.33799934387207 L 0.5099999904632568 9.330999374389648 L 0.5099999904632568 9.340999603271484 L 0 9.340999603271484 L 0 21.340999603271484 L 21 21.340999603271484 L 21 9.340999603271484 L 20.038000106811523 9.340999603271484 L 18.124000549316406 3.742000102996826 L 16.025999069213867 4.457000255584717 Z M 17.924999237060547 9.340999603271484 L 7.897000312805176 9.340999603271484 L 15.365999221801758 6.795000076293945 L 16.88800048828125 6.308000087738037 L 17.924999237060547 9.340999603271484 Z M 14.050000190734863 5.13100004196167 L 6.340000152587891 7.759000301361084 L 12.446000099182129 2.88100004196167 L 14.050000190734863 5.13100004196167 Z M 2 17.510000228881836 L 2 13.170000076293945 C 2.4221753776073456 13.021001413464546 2.805650234222412 12.779402315616608 3.1223063468933105 12.462919235229492 C 3.438962459564209 12.146436154842377 3.680770516395569 11.7630934715271 3.8299999237060547 11.340999603271484 L 17.170000076293945 11.340999603271484 C 17.31910301744938 11.763278394937515 17.560854583978653 12.146818786859512 17.877517700195312 12.463481903076172 C 18.194180816411972 12.780145019292831 18.57772120833397 13.021896585822105 19 13.170999526977539 L 19 17.51099967956543 C 18.57772120833397 17.660102620720863 18.194180816411972 17.901854187250137 17.877517700195312 18.218517303466797 C 17.560854583978653 18.535180419683456 17.31910301744938 18.918720811605453 17.170000076293945 19.340999603271484 L 3.8319997787475586 19.340999603271484 C 3.6821836978197098 18.91868007183075 3.439964711666107 18.53513863682747 3.1230196952819824 18.218366622924805 C 2.8060746788978577 17.90159460902214 2.4224012792110443 17.65958571434021 2 17.510000228881836 Z" fill="rgb(0,0,0)"/>
        </svg>