<svg 
          width="20" 
          height="16" fill="none" 
          xmlns="http://www.w3.org/2000/svg">
          <path d="M 2 0 C 1.4695670008659363 8.881784197001252e-16 0.960859090089798 0.21071359515190125 0.5857863426208496 0.5857863426208496 C 0.21071359515190125 0.960859090089798 4.440892098500626e-16 1.4695670008659363 0 2 L 0 6 C 0.5304329991340637 6 1.039140909910202 6.2107140719890594 1.4142136573791504 6.585786819458008 C 1.7892864048480988 6.960859566926956 1.9999999999999996 7.469567000865936 2 8 C 1.9999999999999996 8.530432999134064 1.7892864048480988 9.039140433073044 1.4142136573791504 9.414213180541992 C 1.039140909910202 9.78928592801094 0.5304329991340637 10 0 10 L 0 14 C 4.440892098500626e-16 14.530432999134064 0.21071359515190125 15.039140433073044 0.5857863426208496 15.414213180541992 C 0.960859090089798 15.78928592801094 1.4695670008659363 16 2 16 L 18 16 C 18.530432999134064 16 19.039140433073044 15.78928592801094 19.414213180541992 15.414213180541992 C 19.78928592801094 15.039140433073044 20 14.530432999134064 20 14 L 20 10 C 19.469567000865936 10 18.960859566926956 9.78928592801094 18.585786819458008 9.414213180541992 C 18.21071407198906 9.039140433073044 18 8.530432999134064 18 8 C 18 7.469567000865936 18.21071407198906 6.960859566926956 18.585786819458008 6.585786819458008 C 18.960859566926956 6.2107140719890594 19.469567000865936 5.999999999999998 20 6 L 20 2 C 20 1.4695670008659363 19.78928592801094 0.960859090089798 19.414213180541992 0.5857863426208496 C 19.039140433073044 0.21071359515190125 18.530432999134064 1.3322676295501878e-15 18 0 L 2 0 Z M 13.5 3 L 15 4.5 L 6.5 13 L 5 11.5 L 13.5 3 Z M 6.810000419616699 3.0399999618530273 C 7.7900004386901855 3.0399999618530273 8.579999923706055 3.830000400543213 8.579999923706055 4.810000419616699 C 8.579999923706055 5.279433608055115 8.393518149852753 5.72963935136795 8.061578750610352 6.061578750610352 C 7.72963935136795 6.393518149852753 7.279433608055115 6.579999923706053 6.810000419616699 6.579999923706055 C 5.830000400543213 6.579999923706053 5.039999961853027 5.7900004386901855 5.039999961853027 4.810000419616699 C 5.039999961853028 4.340567231178284 5.226481735706329 3.8903605341911316 5.5584211349487305 3.5584211349487305 C 5.890360534191132 3.2264817357063293 6.340567231178284 3.0399999618530282 6.810000419616699 3.0399999618530273 Z M 13.1899995803833 9.420000076293945 C 14.169999599456787 9.420000076293945 14.959999084472656 10.209999561309814 14.959999084472656 11.1899995803833 C 14.959999084472656 11.659432768821716 14.773519217967987 12.109640419483185 14.441579818725586 12.441579818725586 C 14.109640419483185 12.773519217967987 13.659432768821716 12.959999084472656 13.1899995803833 12.959999084472656 C 12.209999561309814 12.959999084472656 11.420000076293945 12.169999599456787 11.420000076293945 11.1899995803833 C 11.420000076293945 10.720566391944885 11.606481850147247 10.27036064863205 11.938421249389648 9.938421249389648 C 12.27036064863205 9.606481850147247 12.720566391944885 9.420000076293947 13.1899995803833 9.420000076293945 Z" fill="rgb(0,0,0)"/>
        </svg>