<svg 
          width="8.937504768371582" 
          height="11.375" fill="none" 
          xmlns="http://www.w3.org/2000/svg">
          <path d="M 4.468752771615987 0 C 3.2839955902027933 0.0013976913032820448 2.1481633845393437 0.47265999019145966 1.310412998094506 1.3104103654623032 C 0.47266261164966816 2.1481607407331467 0.001400496145940404 3.2839928343892097 0.0000028048240158194313 4.46875 C -0.001086488656579291 5.4368811920285225 0.3151339297306205 6.378692846745253 0.9002528534206793 7.150000154972076 C 0.9002528534206811 7.150000154972078 1.0221278462685444 7.310468768584542 1.0420340960134464 7.333625018596649 L 4.468752771615987 11.375 L 7.89709662003407 7.331594109535217 C 7.91497162017563 7.310062859789468 8.037253367814138 7.150000154972076 8.037253367814138 7.150000154972076 L 8.037659394659764 7.1487812995910645 C 8.622380621253416 6.377754732966423 8.938442910066222 5.436417244374752 8.937503218650797 4.46875 C 8.936105527328872 3.2839928343892097 8.464843028439855 2.1481607407331467 7.627092641995017 1.3104103654623032 C 6.78934225555018 0.47265999019145966 5.6535099530291815 0.0013976913032820448 4.468752771615987 0 Z M 4.468752771615987 6.09375 C 4.1473581394153625 6.09375 3.833181186483762 5.998445284552872 3.565951305507105 5.81988799571991 C 3.298721424530448 5.641330706886947 3.090440767128276 5.387540649622679 2.967448363545181 5.090610712766647 C 2.8444559599620862 4.793680775910616 2.812275541738127 4.466947408393025 2.874976524314347 4.151728272438049 C 2.9376775068905667 3.8365091364830732 3.0924438296714447 3.5469617303460836 3.3197041596693078 3.3197014033794403 C 3.546964489667171 3.092441076412797 3.836511899666171 2.9376747556962073 4.15173103982557 2.874973773956299 C 4.466950179984969 2.8122727922163904 4.793683164430364 2.8444532100111246 5.0906131052468755 2.9674456119537354 C 5.387543046063387 3.090438013896346 5.641333494142928 3.2987186685204506 5.819890785357504 3.5659485459327698 C 5.998448076572081 3.833178423345089 6.093752793290392 4.147355372086167 6.093752793290392 4.46875 C 6.0932152857270765 4.899561814963818 5.921837641681179 5.312574481591582 5.61720745307188 5.617204666137695 C 5.312577264462581 5.921834850683808 4.899564592326014 6.093212492443854 4.468752771615987 6.09375 Z" fill="rgb(0,0,0)"/>
        </svg>