<svg 
          width="24.16666603088379" 
          height="16.66666603088379" fill="none" 
          xmlns="http://www.w3.org/2000/svg">
          <path d="M 1.7689999373277032 1.2199999423344934 C 0 2.441666529814404 0 4.404999644406644 0 8.333333015441895 C 0 12.261666386477145 0 14.225832674630489 1.7689999373277032 15.445832616964982 C 3.5404165101448712 16.66666593154272 6.387249560006467 16.66666603088379 12.083333015441895 16.66666603088379 C 17.779416470877322 16.66666603088379 20.62745762241682 16.66666593154272 22.396457559744523 15.445832616964982 C 24.166665886839237 14.226665947532661 24.16666603088379 12.261666386477145 24.16666603088379 8.333333015441895 C 24.16666603088379 4.404999644406644 24.166665886839237 2.4408332569122306 22.396457559744523 1.2199999423344934 C 20.628665868139276 0 17.779416470877322 0 12.083333015441895 0 C 6.387249560006467 0 3.539208264422416 0 1.7689999373277032 1.2199999423344934 Z M 12.083333015441895 9.166666316986085 C 12.403802943987719 9.166666316986085 12.7111470105735 9.078868790339852 12.937753456207702 8.922588484856078 C 13.164359901841904 8.766308179372304 13.291666316986085 8.554346756650082 13.291666316986085 8.333333015441895 C 13.291666316986085 8.112319274233707 13.164359901841904 7.900357851511485 12.937753456207702 7.744077546027711 C 12.7111470105735 7.587797240543937 12.403802943987719 7.499999713897705 12.083333015441895 7.499999713897705 C 11.76286308689607 7.499999713897705 11.45551902031029 7.587797240543937 11.228912574676087 7.744077546027711 C 11.002306129041886 7.900357851511485 10.874999713897706 8.112319274233707 10.874999713897706 8.333333015441895 C 10.874999713897706 8.554346756650082 11.002306129041886 8.766308179372304 11.228912574676087 8.922588484856078 C 11.45551902031029 9.078868790339852 11.76286308689607 9.166666316986085 12.083333015441895 9.166666316986085 Z M 8.458333110809326 8.333333015441895 C 8.458333110809326 8.554346756650082 8.331026695665146 8.766308179372304 8.104420250030945 8.922588484856078 C 7.877813804396743 9.078868790339852 7.570469737810962 9.166666316986085 7.249999809265137 9.166666316986085 C 6.929529880719313 9.166666316986085 6.622185814133531 9.078868790339852 6.395579368499329 8.922588484856078 C 6.1689729228651276 8.766308179372304 6.041666507720947 8.554346756650082 6.041666507720947 8.333333015441895 C 6.041666507720947 8.112319274233707 6.1689729228651276 7.900357851511485 6.395579368499329 7.744077546027711 C 6.622185814133531 7.587797240543937 6.929529880719313 7.499999713897705 7.249999809265137 7.499999713897705 C 7.570469737810962 7.499999713897705 7.877813804396743 7.587797240543937 8.104420250030945 7.744077546027711 C 8.331026695665146 7.900357851511485 8.458333110809326 8.112319274233707 8.458333110809326 8.333333015441895 Z M 16.91666622161865 9.166666316986085 C 17.237136150164478 9.166666316986085 17.54448136910669 9.078868790339852 17.771087814740895 8.922588484856078 C 17.9976942603751 8.766308179372304 18.124999523162842 8.554346756650082 18.124999523162842 8.333333015441895 C 18.124999523162842 8.112319274233707 17.9976942603751 7.900357851511485 17.771087814740895 7.744077546027711 C 17.54448136910669 7.587797240543937 17.237136150164478 7.499999713897705 16.91666622161865 7.499999713897705 C 16.596196293072826 7.499999713897705 16.288852226487048 7.587797240543937 16.062245780852844 7.744077546027711 C 15.835639335218643 7.900357851511485 15.708332920074463 8.112319274233707 15.708332920074463 8.333333015441895 C 15.708332920074463 8.554346756650082 15.835639335218643 8.766308179372304 16.062245780852844 8.922588484856078 C 16.288852226487048 9.078868790339852 16.596196293072826 9.166666316986085 16.91666622161865 9.166666316986085 Z" fill="rgb(255,255,255)"/>
        </svg>