<svg 
          width="20" 
          height="20" fill="none" 
          xmlns="http://www.w3.org/2000/svg">
          <path d="M 20 10 C 20 15.52299976348877 15.52299976348877 20 10 20 C 4.4770002365112305 20 0 15.52299976348877 0 10 C 0 4.4770002365112305 4.4770002365112305 0 10 0 C 15.52299976348877 0 20 4.4770002365112305 20 10 Z M 6 11 C 6.265216499567032 11 6.519570216536522 10.89464296400547 6.707106590270996 10.707106590270996 C 6.89464296400547 10.519570216536522 7 10.265216499567032 7 10 C 7 9.734783500432968 6.89464296400547 9.480429783463478 6.707106590270996 9.292893409729004 C 6.519570216536522 9.10535703599453 6.265216499567032 9 6 9 C 5.734783500432968 9 5.480429783463478 9.10535703599453 5.292893409729004 9.292893409729004 C 5.10535703599453 9.480429783463478 5 9.734783500432968 5 10 C 5 10.265216499567032 5.10535703599453 10.519570216536522 5.292893409729004 10.707106590270996 C 5.480429783463478 10.89464296400547 5.734783500432968 11 6 11 Z M 10 11 C 10.265216499567032 11 10.519570216536522 10.89464296400547 10.707106590270996 10.707106590270996 C 10.89464296400547 10.519570216536522 11 10.265216499567032 11 10 C 11 9.734783500432968 10.89464296400547 9.480429783463478 10.707106590270996 9.292893409729004 C 10.519570216536522 9.10535703599453 10.265216499567032 9 10 9 C 9.734783500432968 9 9.480429783463478 9.10535703599453 9.292893409729004 9.292893409729004 C 9.10535703599453 9.480429783463478 9 9.734783500432968 9 10 C 9 10.265216499567032 9.10535703599453 10.519570216536522 9.292893409729004 10.707106590270996 C 9.480429783463478 10.89464296400547 9.734783500432968 11 10 11 Z M 14 11 C 14.265216499567032 11 14.519571170210838 10.89464296400547 14.707107543945312 10.707106590270996 C 14.894643917679787 10.519570216536522 15 10.265216499567032 15 10 C 15 9.734783500432968 14.894643917679787 9.480429783463478 14.707107543945312 9.292893409729004 C 14.519571170210838 9.10535703599453 14.265216499567032 9 14 9 C 13.734783500432968 9 13.480429783463478 9.10535703599453 13.292893409729004 9.292893409729004 C 13.10535703599453 9.480429783463478 13 9.734783500432968 13 10 C 13 10.265216499567032 13.10535703599453 10.519570216536522 13.292893409729004 10.707106590270996 C 13.480429783463478 10.89464296400547 13.734783500432968 11 14 11 Z" fill="rgb(255,255,255)"/>
        </svg>