<svg 
          width="21.875003814697266" 
          height="21.000003814697266" fill="none" 
          xmlns="http://www.w3.org/2000/svg">
          <path d="M 0 10.499999761581469 C 0 12.576703620486 0.641473270352521 14.606770660610017 1.843301151578606 16.333486662967236 C 3.0451290328046907 18.060202665324454 4.7533331876845875 19.406014061405305 6.751899963901011 20.200734156637406 C 8.750466740117435 20.995454251869507 10.949632569783928 21.203389282376754 13.071299697578237 20.798244480899612 C 15.192966825372546 20.39309967942247 17.141842514580702 19.393071509132657 18.67147926157206 17.924620221351056 C 20.201116008563417 16.456168933569455 21.242812011712914 14.58524825833535 21.664837843518463 12.548447800853241 C 22.08686367532401 10.511647343371132 21.870264686786122 8.400448131551137 21.042431260267794 6.481824012442479 C 20.214597833749465 4.563199893333819 18.81271097301814 2.9233238927336336 17.01404848363195 1.7695691183733078 C 15.215385994245755 0.6158143440129817 13.100732842815166 -2.4980017486856576e-15 10.937499672174521 0 C 8.036694434803218 2.33146829877328e-15 5.25469838724362 1.106246684704588 3.203519337718946 3.0753785865561616 C 1.1523402881942726 5.044510488407735 2.0816681087791294e-15 7.71522671347061 0 10.499999761581469 Z M 4.687499859503366 9.749999778611365 L 14.179686776974469 9.749999778611365 L 9.82031196724098 5.544749610883881 L 10.937499672174521 4.499999897820629 L 17.187499484845677 10.499999761581469 L 10.937499672174521 16.49999962534231 L 9.82031196724098 15.429749615311694 L 14.179686776974469 11.249999744551575 L 4.687499859503366 11.249999744551575 L 4.687499859503366 9.749999778611365 Z" fill="rgb(0,0,0)"/>
        </svg>