<svg 
          width="7" 
          height="7" fill="none" 
          xmlns="http://www.w3.org/2000/svg">
          <path d="M 3.5 0 C 2.571742296218872 0 1.6815037727355957 0.36874914169311523 1.0251264572143555 1.0251264572143555 C 0.36874914169311523 1.6815037727355957 0 2.571742296218872 0 3.5 C 0 4.428257703781128 0.36874914169311523 5.318497180938721 1.0251264572143555 5.974874496459961 C 1.6815037727355957 6.631251811981201 2.571742296218872 7 3.5 7 C 4.428257703781128 7 5.318496227264404 6.631251811981201 5.9748735427856445 5.974874496459961 C 6.631250858306885 5.318497180938721 7 4.428257703781128 7 3.5 C 7 2.571742296218872 6.631250858306885 1.6815037727355957 5.9748735427856445 1.0251264572143555 C 5.318496227264404 0.36874914169311523 4.428257703781128 0 3.5 0 Z M 2 3.5 C 2 3.1021752655506134 2.158035069704056 2.7206442058086395 2.4393396377563477 2.4393396377563477 C 2.7206442058086395 2.158035069704056 3.1021752655506134 2.0000000000000018 3.5 2 C 3.8978247344493866 2.0000000000000018 4.2793557941913605 2.158035069704056 4.560660362243652 2.4393396377563477 C 4.841964930295944 2.7206442058086395 5 3.1021752655506134 5 3.5 C 4.999999999999998 3.8978247344493866 4.841964930295944 4.279354840517044 4.560660362243652 4.560659408569336 C 4.2793557941913605 4.841963976621628 3.8978247344493866 5 3.5 5 C 3.1021752655506134 5 2.7206442058086395 4.841963976621628 2.4393396377563477 4.560659408569336 C 2.158035069704056 4.279354840517044 2.0000000000000018 3.8978247344493866 2 3.5 Z" fill="rgb(0,0,0)"/>
        </svg>