<svg 
          width="17.030658721923828" 
          height="16.310182571411133" fill="none" 
          xmlns="http://www.w3.org/2000/svg">
          <path d="M 16.138125105890232 0.4026825428009033 L 16.605208557842687 0.8451825678348541 C 17.248833573336547 1.4556825757026672 17.151458223097084 2.5379326790571213 16.385916553962847 3.2624326944351196 L 6.753708410536307 12.387681484222412 L 3.6329584945584354 13.46918249130249 C 3.241083492612143 13.605682488530874 2.8595001250557637 13.428682766854763 2.7819167941135112 13.075432777404785 C 2.7557830411865862 12.947286285459995 2.768125487923103 12.81476380303502 2.81754147685056 12.692932605743408 L 3.9812918715658157 9.710932731628418 L 13.586583789366717 0.610432505607605 C 14.352125458500952 -0.11406750977039337 15.494500090396373 -0.2078174650669098 16.138125105890232 0.4026825428009033 Z M 6.3333333037790975 1.3101825714111328 C 6.4372964561098565 1.3101825693355815 6.540241094519994 1.3295818269252777 6.6362905192639605 1.3672728538513184 C 6.7323399440079275 1.404963880777359 6.819612968244132 1.4602085128426552 6.89312601846472 1.5298524498939514 C 6.966639068685308 1.5994963869452477 7.024953026604812 1.6821757424622774 7.064738002234721 1.7731699347496033 C 7.10452297786463 1.8641641270369291 7.124999966751485 1.9616911634802818 7.124999966751485 2.060182571411133 C 7.124999966751485 2.158673979341984 7.10452297786463 2.256200836971402 7.064738002234721 2.347195029258728 C 7.024953026604812 2.438189221546054 6.966639068685308 2.520868755877018 6.89312601846472 2.590512692928314 C 6.819612968244132 2.6601566299796104 6.7323399440079275 2.7154012620449066 6.6362905192639605 2.7530922889709473 C 6.540241094519994 2.790783315896988 6.4372964561098565 2.810182573486684 6.3333333037790975 2.810182571411133 L 3.166666463141508 2.810182571411133 C 2.7467403407866087 2.8101825714111337 2.3440134353828492 2.9682177677750587 2.0470808450222218 3.24952232837677 C 1.7501482546615945 3.5308268889784813 1.5833333259447748 3.912357822060585 1.5833333259447744 4.310182571411133 L 1.5833333259447744 13.310182571411133 C 1.5833333259447748 13.70800732076168 1.7501482546615945 14.089537896215916 2.0470808450222218 14.370842456817627 C 2.3440134353828492 14.652147017419338 2.7467403407866087 14.810182571411133 3.166666463141508 14.810182571411133 L 12.666665852566032 14.810182571411133 C 13.086591974920932 14.810182571411133 13.48932095655314 14.652147017419338 13.786253546913768 14.370842456817627 C 14.083186137274396 14.089537896215916 14.24999993350297 13.70800732076168 14.24999993350297 13.310182571411133 L 14.24999993350297 10.310182571411133 C 14.24999993350297 10.111270196735859 14.333408341601585 9.920504909008741 14.481874636781898 9.779852628707886 C 14.63034093196221 9.63920034840703 14.831703535297908 9.560182571411133 15.041666596475357 9.560182571411133 C 15.251629657652806 9.560182571411133 15.45299377097283 9.63920034840703 15.601460066153143 9.779852628707886 C 15.749926361333456 9.920504909008741 15.833333259447745 10.111270196735859 15.833333259447745 10.310182571411133 L 15.833333259447745 13.310182571411133 C 15.833333259447745 14.105832070112228 15.499704157006267 14.868893221020699 14.905838976285013 15.431502342224121 C 14.311973795563759 15.994111463427544 13.50651809727583 16.310182571411133 12.666665852566032 16.310182571411133 L 3.166666463141508 16.310182571411133 C 2.3268142184317093 16.310182571411133 1.5213604076241904 15.994111463427544 0.9274952269029358 15.431502342224121 C 0.33363004618168135 14.868893221020699 4.394632785300541e-16 14.105832070112228 0 13.310182571411133 L 0 4.310182571411133 C 1.7578531141202163e-16 3.5145330727100372 0.33363004618168135 2.751471385359764 0.9274952269029358 2.1888622641563416 C 1.5213604076241904 1.626253142952919 2.3268142184317093 1.3101825714111337 3.166666463141508 1.3101825714111328 L 6.3333333037790975 1.3101825714111328 Z" fill="rgb(78.00000295042992,203.00000309944153,113.00000086426735)"/>
        </svg>